<svg width="166" height="164" viewBox="0 0 166 164" fill="none" xmlns="http://www.w3.org/2000/svg">
    <path d="M79.9495 0.541656C35.9456 0.541656 0.273438 36.2139 0.273438 80.2177C0.273438 110.847 17.5562 137.439 42.9016 150.775C20.924 136.59 6.37417 111.885 6.37417 83.7823C6.37417 39.7784 42.0464 4.10618 86.0502 4.10618C99.4252 4.10618 112.03 7.40175 123.098 13.2252C110.663 5.19949 95.8503 0.541656 79.9495 0.541656Z" fill="url(#paint0_linear_290_431)"/>
    <path d="M103.423 107.808L113.834 98.1036L103.423 88.3995L93.0114 98.1036L103.423 107.808Z" fill="url(#paint1_linear_290_431)"/>
    <path d="M103.423 64.1213L66.9637 98.1036H79.661L103.423 75.956V64.1213Z" fill="url(#paint2_linear_290_431)"/>
    <path d="M66.9637 98.1036L103.423 132.086V120.251L79.661 98.1036H66.9637Z" fill="url(#paint3_linear_290_431)"/>
    <path d="M103.423 132.086L139.882 98.1036H127.185L103.423 120.251V132.086Z" fill="url(#paint4_linear_290_431)"/>
    <path d="M139.882 98.1036L103.423 64.1213V75.956L127.185 98.1036H139.882Z" fill="url(#paint5_linear_290_431)"/>
    <path d="M51.137 76.9938L54.4305 71.6768L48.726 68.6071L45.4325 73.9241L51.137 76.9938Z" fill="url(#paint6_linear_290_431)"/>
    <path d="M45.71 58.1158L34.1766 76.7352L39.6634 75.3649L47.1802 63.2299L45.71 58.1158Z" fill="url(#paint7_linear_290_431)"/>
    <path d="M34.1766 76.7352L54.153 87.485L52.6828 82.371L39.6634 75.3649L34.1766 76.7352Z" fill="url(#paint8_linear_290_431)"/>
    <path d="M54.153 87.485L65.6864 68.8657L60.1996 70.236L52.6828 82.371L54.153 87.485Z" fill="url(#paint9_linear_290_431)"/>
    <path d="M65.6864 68.8657L45.71 58.1158L47.1802 63.2299L60.1996 70.236L65.6864 68.8657Z" fill="url(#paint10_linear_290_431)"/>
    <path d="M74.3151 53.1431L80.0197 50.0733L76.7262 44.7563L71.0216 47.8261L74.3151 53.1431Z" fill="url(#paint11_linear_290_431)"/>
    <path d="M79.7422 34.2651L59.7657 45.015L65.2525 46.3853L78.272 39.3792L79.7422 34.2651Z" fill="url(#paint12_linear_290_431)"/>
    <path d="M59.7657 45.015L71.2991 63.6343L72.7693 58.5202L65.2525 46.3853L59.7657 45.015Z" fill="url(#paint13_linear_290_431)"/>
    <path d="M71.2991 63.6343L91.2756 52.8844L85.7887 51.5141L72.7693 58.5202L71.2991 63.6343Z" fill="url(#paint14_linear_290_431)"/>
    <path d="M91.2756 52.8844L79.7422 34.2651L78.272 39.3792L85.7887 51.5141L91.2756 52.8844Z" fill="url(#paint15_linear_290_431)"/>
    <path d="M45.0779 105.945L48.3714 100.628L42.6668 97.5583L39.3733 102.875L45.0779 105.945Z" fill="url(#paint16_linear_290_431)"/>
    <path d="M39.6508 87.067L28.1174 105.686L33.6042 104.316L41.121 92.1811L39.6508 87.067Z" fill="url(#paint17_linear_290_431)"/>
    <path d="M28.1174 105.686L48.0939 116.436L46.6237 111.322L33.6042 104.316L28.1174 105.686Z" fill="url(#paint18_linear_290_431)"/>
    <path d="M48.0939 116.436L59.6273 97.8169L54.1404 99.1872L46.6237 111.322L48.0939 116.436Z" fill="url(#paint19_linear_290_431)"/>
    <path d="M59.6273 97.8169L39.6508 87.067L41.121 92.1811L54.1404 99.1872L59.6273 97.8169Z" fill="url(#paint20_linear_290_431)"/>
    <path d="M106.131 46.7921L111.836 43.7223L108.542 38.4053L102.838 41.4751L106.131 46.7921Z" fill="url(#paint21_linear_290_431)"/>
    <path d="M111.558 27.9141L91.5818 38.664L97.0687 40.0343L110.088 33.0281L111.558 27.9141Z" fill="url(#paint22_linear_290_431)"/>
    <path d="M91.5818 38.664L103.115 57.2833L104.585 52.1692L97.0687 40.0343L91.5818 38.664Z" fill="url(#paint23_linear_290_431)"/>
    <path d="M103.115 57.2833L123.092 46.5334L117.605 45.1631L104.585 52.1692L103.115 57.2833Z" fill="url(#paint24_linear_290_431)"/>
    <path d="M123.092 46.5334L111.558 27.9141L110.088 33.0281L117.605 45.1631L123.092 46.5334Z" fill="url(#paint25_linear_290_431)"/>
    <path fill-rule="evenodd" clip-rule="evenodd" d="M86.0502 163.458C130.054 163.458 165.726 127.786 165.726 83.7823C165.726 53.1533 148.444 26.5609 123.098 13.2252C112.03 7.40175 99.4252 4.10618 86.0502 4.10618C42.0464 4.10618 6.37417 39.7784 6.37417 83.7823C6.37417 111.885 20.924 136.59 42.9016 150.775C55.3366 158.8 70.1495 163.458 86.0502 163.458ZM139.882 98.1036L103.423 132.086L66.9637 98.1036L103.423 64.1213L139.882 98.1036ZM65.6864 68.8657L54.153 87.485L34.1766 76.7352L45.71 58.1158L65.6864 68.8657ZM91.2756 52.8844L71.2991 63.6343L59.7657 45.015L79.7422 34.2651L91.2756 52.8844ZM59.6273 97.8169L48.0939 116.436L28.1174 105.686L39.6508 87.067L59.6273 97.8169ZM123.092 46.5334L103.115 57.2833L91.5818 38.664L111.558 27.9141L123.092 46.5334Z" fill="url(#paint26_linear_290_431)"/>
    <path fill-rule="evenodd" clip-rule="evenodd" d="M79.661 98.1036L103.423 120.251L127.185 98.1036L103.423 75.956L79.661 98.1036ZM113.834 98.1036L103.423 107.808L93.0114 98.1036L103.423 88.3995L113.834 98.1036Z" fill="url(#paint27_linear_290_431)"/>
    <path fill-rule="evenodd" clip-rule="evenodd" d="M33.6042 104.316L46.6237 111.322L54.1404 99.1872L41.121 92.1811L33.6042 104.316ZM48.3714 100.628L45.0779 105.945L39.3733 102.875L42.6668 97.5583L48.3714 100.628Z" fill="url(#paint28_linear_290_431)"/>
    <path fill-rule="evenodd" clip-rule="evenodd" d="M39.6634 75.3649L52.6828 82.371L60.1996 70.236L47.1802 63.2299L39.6634 75.3649ZM54.4305 71.6768L51.137 76.9938L45.4325 73.9241L48.726 68.6071L54.4305 71.6768Z" fill="url(#paint29_linear_290_431)"/>
    <path fill-rule="evenodd" clip-rule="evenodd" d="M65.2525 46.3853L72.7693 58.5202L85.7887 51.5141L78.272 39.3792L65.2525 46.3853ZM80.0197 50.0733L74.3151 53.1431L71.0216 47.8261L76.7262 44.7563L80.0197 50.0733Z" fill="url(#paint30_linear_290_431)"/>
    <path fill-rule="evenodd" clip-rule="evenodd" d="M139.882 98.1036L103.423 132.086L66.9637 98.1036L103.423 64.1213L139.882 98.1036ZM65.6864 68.8657L54.153 87.485L34.1766 76.7352L45.71 58.1158L65.6864 68.8657ZM91.2756 52.8844L71.2991 63.6343L59.7657 45.015L79.7422 34.2651L91.2756 52.8844ZM59.6273 97.8169L48.0939 116.436L28.1174 105.686L39.6508 87.067L59.6273 97.8169ZM123.092 46.5334L103.115 57.2833L91.5818 38.664L111.558 27.9141L123.092 46.5334ZM103.423 120.251L79.661 98.1036L103.423 75.956L127.185 98.1036L103.423 120.251ZM103.423 107.808L113.834 98.1036L103.423 88.3995L93.0114 98.1036L103.423 107.808ZM33.6042 104.316L46.6237 111.322L54.1404 99.1872L41.121 92.1811L33.6042 104.316ZM48.3714 100.628L45.0779 105.945L39.3733 102.875L42.6668 97.5583L48.3714 100.628ZM52.6828 82.371L39.6634 75.3649L47.1802 63.2299L60.1996 70.236L52.6828 82.371ZM51.137 76.9938L54.4305 71.6768L48.726 68.6071L45.4325 73.9241L51.137 76.9938ZM65.2525 46.3853L72.7693 58.5202L85.7887 51.5141L78.272 39.3792L65.2525 46.3853ZM80.0197 50.0733L74.3151 53.1431L71.0216 47.8261L76.7262 44.7563L80.0197 50.0733ZM104.585 52.1692L97.0687 40.0343L110.088 33.0281L117.605 45.1631L104.585 52.1692ZM106.131 46.7921L111.836 43.7223L108.542 38.4053L102.838 41.4751L106.131 46.7921Z" fill="url(#paint31_linear_290_431)"/>
    <path fill-rule="evenodd" clip-rule="evenodd" d="M97.0687 40.0343L104.585 52.1692L117.605 45.1631L110.088 33.0281L97.0687 40.0343ZM111.836 43.7223L106.131 46.7921L102.838 41.4751L108.542 38.4053L111.836 43.7223Z" fill="url(#paint32_linear_290_431)"/>
    <defs>
        <linearGradient id="paint0_linear_290_431" x1="44.5661" y1="97.4924" x2="164.2" y2="-1.30648" gradientUnits="userSpaceOnUse">
            <stop stop-color="#3F2B01"/>
            <stop offset="0.253895" stop-color="#DB7E10"/>
            <stop offset="0.524039" stop-color="#F6B91C"/>
            <stop offset="0.776173" stop-color="white"/>
            <stop offset="1" stop-color="#ED9F00"/>
        </linearGradient>
        <linearGradient id="paint1_linear_290_431" x1="44.5661" y1="97.4924" x2="164.2" y2="-1.30648" gradientUnits="userSpaceOnUse">
            <stop stop-color="#724D00"/>
            <stop offset="0.253895" stop-color="#DB7E10"/>
            <stop offset="0.524039" stop-color="#F6B91C"/>
            <stop offset="0.776173" stop-color="#FFC44D"/>
            <stop offset="1" stop-color="#D89100"/>
        </linearGradient>
        <linearGradient id="paint2_linear_290_431" x1="44.5661" y1="97.4924" x2="164.2" y2="-1.30648" gradientUnits="userSpaceOnUse">
            <stop stop-color="#724D00"/>
            <stop offset="0.253895" stop-color="#DB7E10"/>
            <stop offset="0.524039" stop-color="#F6B91C"/>
            <stop offset="0.776173" stop-color="#FFC44D"/>
            <stop offset="1" stop-color="#D89100"/>
        </linearGradient>
        <linearGradient id="paint3_linear_290_431" x1="44.5661" y1="97.4924" x2="164.2" y2="-1.30648" gradientUnits="userSpaceOnUse">
            <stop stop-color="#724D00"/>
            <stop offset="0.253895" stop-color="#DB7E10"/>
            <stop offset="0.524039" stop-color="#F6B91C"/>
            <stop offset="0.776173" stop-color="#FFC44D"/>
            <stop offset="1" stop-color="#D89100"/>
        </linearGradient>
        <linearGradient id="paint4_linear_290_431" x1="44.5661" y1="97.4924" x2="164.2" y2="-1.30648" gradientUnits="userSpaceOnUse">
            <stop stop-color="#724D00"/>
            <stop offset="0.253895" stop-color="#DB7E10"/>
            <stop offset="0.524039" stop-color="#F6B91C"/>
            <stop offset="0.776173" stop-color="#FFC44D"/>
            <stop offset="1" stop-color="#D89100"/>
        </linearGradient>
        <linearGradient id="paint5_linear_290_431" x1="44.5661" y1="97.4924" x2="164.2" y2="-1.30648" gradientUnits="userSpaceOnUse">
            <stop stop-color="#724D00"/>
            <stop offset="0.253895" stop-color="#DB7E10"/>
            <stop offset="0.524039" stop-color="#F6B91C"/>
            <stop offset="0.776173" stop-color="#FFC44D"/>
            <stop offset="1" stop-color="#D89100"/>
        </linearGradient>
        <linearGradient id="paint6_linear_290_431" x1="44.5661" y1="97.4924" x2="164.2" y2="-1.30648" gradientUnits="userSpaceOnUse">
            <stop stop-color="#724D00"/>
            <stop offset="0.253895" stop-color="#DB7E10"/>
            <stop offset="0.524039" stop-color="#F6B91C"/>
            <stop offset="0.776173" stop-color="#FFC44D"/>
            <stop offset="1" stop-color="#D89100"/>
        </linearGradient>
        <linearGradient id="paint7_linear_290_431" x1="44.5661" y1="97.4924" x2="164.2" y2="-1.30648" gradientUnits="userSpaceOnUse">
            <stop stop-color="#724D00"/>
            <stop offset="0.253895" stop-color="#DB7E10"/>
            <stop offset="0.524039" stop-color="#F6B91C"/>
            <stop offset="0.776173" stop-color="#FFC44D"/>
            <stop offset="1" stop-color="#D89100"/>
        </linearGradient>
        <linearGradient id="paint8_linear_290_431" x1="44.5661" y1="97.4924" x2="164.2" y2="-1.30648" gradientUnits="userSpaceOnUse">
            <stop stop-color="#724D00"/>
            <stop offset="0.253895" stop-color="#DB7E10"/>
            <stop offset="0.524039" stop-color="#F6B91C"/>
            <stop offset="0.776173" stop-color="#FFC44D"/>
            <stop offset="1" stop-color="#D89100"/>
        </linearGradient>
        <linearGradient id="paint9_linear_290_431" x1="44.5661" y1="97.4924" x2="164.2" y2="-1.30648" gradientUnits="userSpaceOnUse">
            <stop stop-color="#724D00"/>
            <stop offset="0.253895" stop-color="#DB7E10"/>
            <stop offset="0.524039" stop-color="#F6B91C"/>
            <stop offset="0.776173" stop-color="#FFC44D"/>
            <stop offset="1" stop-color="#D89100"/>
        </linearGradient>
        <linearGradient id="paint10_linear_290_431" x1="44.5661" y1="97.4924" x2="164.2" y2="-1.30648" gradientUnits="userSpaceOnUse">
            <stop stop-color="#724D00"/>
            <stop offset="0.253895" stop-color="#DB7E10"/>
            <stop offset="0.524039" stop-color="#F6B91C"/>
            <stop offset="0.776173" stop-color="#FFC44D"/>
            <stop offset="1" stop-color="#D89100"/>
        </linearGradient>
        <linearGradient id="paint11_linear_290_431" x1="44.5661" y1="97.4924" x2="164.2" y2="-1.30648" gradientUnits="userSpaceOnUse">
            <stop stop-color="#724D00"/>
            <stop offset="0.253895" stop-color="#DB7E10"/>
            <stop offset="0.524039" stop-color="#F6B91C"/>
            <stop offset="0.776173" stop-color="#FFC44D"/>
            <stop offset="1" stop-color="#D89100"/>
        </linearGradient>
        <linearGradient id="paint12_linear_290_431" x1="44.5661" y1="97.4924" x2="164.2" y2="-1.30648" gradientUnits="userSpaceOnUse">
            <stop stop-color="#724D00"/>
            <stop offset="0.253895" stop-color="#DB7E10"/>
            <stop offset="0.524039" stop-color="#F6B91C"/>
            <stop offset="0.776173" stop-color="#FFC44D"/>
            <stop offset="1" stop-color="#D89100"/>
        </linearGradient>
        <linearGradient id="paint13_linear_290_431" x1="44.5661" y1="97.4924" x2="164.2" y2="-1.30648" gradientUnits="userSpaceOnUse">
            <stop stop-color="#724D00"/>
            <stop offset="0.253895" stop-color="#DB7E10"/>
            <stop offset="0.524039" stop-color="#F6B91C"/>
            <stop offset="0.776173" stop-color="#FFC44D"/>
            <stop offset="1" stop-color="#D89100"/>
        </linearGradient>
        <linearGradient id="paint14_linear_290_431" x1="44.5661" y1="97.4924" x2="164.2" y2="-1.30648" gradientUnits="userSpaceOnUse">
            <stop stop-color="#724D00"/>
            <stop offset="0.253895" stop-color="#DB7E10"/>
            <stop offset="0.524039" stop-color="#F6B91C"/>
            <stop offset="0.776173" stop-color="#FFC44D"/>
            <stop offset="1" stop-color="#D89100"/>
        </linearGradient>
        <linearGradient id="paint15_linear_290_431" x1="44.5661" y1="97.4924" x2="164.2" y2="-1.30648" gradientUnits="userSpaceOnUse">
            <stop stop-color="#724D00"/>
            <stop offset="0.253895" stop-color="#DB7E10"/>
            <stop offset="0.524039" stop-color="#F6B91C"/>
            <stop offset="0.776173" stop-color="#FFC44D"/>
            <stop offset="1" stop-color="#D89100"/>
        </linearGradient>
        <linearGradient id="paint16_linear_290_431" x1="44.5661" y1="97.4924" x2="164.2" y2="-1.30648" gradientUnits="userSpaceOnUse">
            <stop stop-color="#724D00"/>
            <stop offset="0.253895" stop-color="#DB7E10"/>
            <stop offset="0.524039" stop-color="#F6B91C"/>
            <stop offset="0.776173" stop-color="#FFC44D"/>
            <stop offset="1" stop-color="#D89100"/>
        </linearGradient>
        <linearGradient id="paint17_linear_290_431" x1="44.5661" y1="97.4924" x2="164.2" y2="-1.30648" gradientUnits="userSpaceOnUse">
            <stop stop-color="#724D00"/>
            <stop offset="0.253895" stop-color="#DB7E10"/>
            <stop offset="0.524039" stop-color="#F6B91C"/>
            <stop offset="0.776173" stop-color="#FFC44D"/>
            <stop offset="1" stop-color="#D89100"/>
        </linearGradient>
        <linearGradient id="paint18_linear_290_431" x1="44.5661" y1="97.4924" x2="164.2" y2="-1.30648" gradientUnits="userSpaceOnUse">
            <stop stop-color="#724D00"/>
            <stop offset="0.253895" stop-color="#DB7E10"/>
            <stop offset="0.524039" stop-color="#F6B91C"/>
            <stop offset="0.776173" stop-color="#FFC44D"/>
            <stop offset="1" stop-color="#D89100"/>
        </linearGradient>
        <linearGradient id="paint19_linear_290_431" x1="44.5661" y1="97.4924" x2="164.2" y2="-1.30648" gradientUnits="userSpaceOnUse">
            <stop stop-color="#724D00"/>
            <stop offset="0.253895" stop-color="#DB7E10"/>
            <stop offset="0.524039" stop-color="#F6B91C"/>
            <stop offset="0.776173" stop-color="#FFC44D"/>
            <stop offset="1" stop-color="#D89100"/>
        </linearGradient>
        <linearGradient id="paint20_linear_290_431" x1="44.5661" y1="97.4924" x2="164.2" y2="-1.30648" gradientUnits="userSpaceOnUse">
            <stop stop-color="#724D00"/>
            <stop offset="0.253895" stop-color="#DB7E10"/>
            <stop offset="0.524039" stop-color="#F6B91C"/>
            <stop offset="0.776173" stop-color="#FFC44D"/>
            <stop offset="1" stop-color="#D89100"/>
        </linearGradient>
        <linearGradient id="paint21_linear_290_431" x1="44.5661" y1="97.4924" x2="164.2" y2="-1.30648" gradientUnits="userSpaceOnUse">
            <stop stop-color="#724D00"/>
            <stop offset="0.253895" stop-color="#DB7E10"/>
            <stop offset="0.524039" stop-color="#F6B91C"/>
            <stop offset="0.776173" stop-color="#FFC44D"/>
            <stop offset="1" stop-color="#D89100"/>
        </linearGradient>
        <linearGradient id="paint22_linear_290_431" x1="44.5661" y1="97.4924" x2="164.2" y2="-1.30648" gradientUnits="userSpaceOnUse">
            <stop stop-color="#724D00"/>
            <stop offset="0.253895" stop-color="#DB7E10"/>
            <stop offset="0.524039" stop-color="#F6B91C"/>
            <stop offset="0.776173" stop-color="#FFC44D"/>
            <stop offset="1" stop-color="#D89100"/>
        </linearGradient>
        <linearGradient id="paint23_linear_290_431" x1="44.5661" y1="97.4924" x2="164.2" y2="-1.30648" gradientUnits="userSpaceOnUse">
            <stop stop-color="#724D00"/>
            <stop offset="0.253895" stop-color="#DB7E10"/>
            <stop offset="0.524039" stop-color="#F6B91C"/>
            <stop offset="0.776173" stop-color="#FFC44D"/>
            <stop offset="1" stop-color="#D89100"/>
        </linearGradient>
        <linearGradient id="paint24_linear_290_431" x1="44.5661" y1="97.4924" x2="164.2" y2="-1.30648" gradientUnits="userSpaceOnUse">
            <stop stop-color="#724D00"/>
            <stop offset="0.253895" stop-color="#DB7E10"/>
            <stop offset="0.524039" stop-color="#F6B91C"/>
            <stop offset="0.776173" stop-color="#FFC44D"/>
            <stop offset="1" stop-color="#D89100"/>
        </linearGradient>
        <linearGradient id="paint25_linear_290_431" x1="44.5661" y1="97.4924" x2="164.2" y2="-1.30648" gradientUnits="userSpaceOnUse">
            <stop stop-color="#724D00"/>
            <stop offset="0.253895" stop-color="#DB7E10"/>
            <stop offset="0.524039" stop-color="#F6B91C"/>
            <stop offset="0.776173" stop-color="#FFC44D"/>
            <stop offset="1" stop-color="#D89100"/>
        </linearGradient>
        <linearGradient id="paint26_linear_290_431" x1="74.7249" y1="125.909" x2="229.976" y2="-72.487" gradientUnits="userSpaceOnUse">
            <stop stop-color="#724D00"/>
            <stop offset="0.253895" stop-color="#DB7E10"/>
            <stop offset="0.3468" stop-color="#E79715"/>
            <stop offset="0.47352" stop-color="#F6B91C"/>
            <stop offset="0.776173" stop-color="#FFC44D"/>
            <stop offset="1" stop-color="#D89100"/>
        </linearGradient>
        <linearGradient id="paint27_linear_290_431" x1="74.7249" y1="125.909" x2="229.976" y2="-72.487" gradientUnits="userSpaceOnUse">
            <stop stop-color="#724D00"/>
            <stop offset="0.253895" stop-color="#DB7E10"/>
            <stop offset="0.3468" stop-color="#E79715"/>
            <stop offset="0.47352" stop-color="#F6B91C"/>
            <stop offset="0.776173" stop-color="#FFC44D"/>
            <stop offset="1" stop-color="#D89100"/>
        </linearGradient>
        <linearGradient id="paint28_linear_290_431" x1="74.7249" y1="125.909" x2="229.976" y2="-72.487" gradientUnits="userSpaceOnUse">
            <stop stop-color="#724D00"/>
            <stop offset="0.253895" stop-color="#DB7E10"/>
            <stop offset="0.3468" stop-color="#E79715"/>
            <stop offset="0.47352" stop-color="#F6B91C"/>
            <stop offset="0.776173" stop-color="#FFC44D"/>
            <stop offset="1" stop-color="#D89100"/>
        </linearGradient>
        <linearGradient id="paint29_linear_290_431" x1="74.7249" y1="125.909" x2="229.976" y2="-72.487" gradientUnits="userSpaceOnUse">
            <stop stop-color="#724D00"/>
            <stop offset="0.253895" stop-color="#DB7E10"/>
            <stop offset="0.3468" stop-color="#E79715"/>
            <stop offset="0.47352" stop-color="#F6B91C"/>
            <stop offset="0.776173" stop-color="#FFC44D"/>
            <stop offset="1" stop-color="#D89100"/>
        </linearGradient>
        <linearGradient id="paint30_linear_290_431" x1="74.7249" y1="125.909" x2="229.976" y2="-72.487" gradientUnits="userSpaceOnUse">
            <stop stop-color="#724D00"/>
            <stop offset="0.253895" stop-color="#DB7E10"/>
            <stop offset="0.3468" stop-color="#E79715"/>
            <stop offset="0.47352" stop-color="#F6B91C"/>
            <stop offset="0.776173" stop-color="#FFC44D"/>
            <stop offset="1" stop-color="#D89100"/>
        </linearGradient>
        <linearGradient id="paint31_linear_290_431" x1="88.4217" y1="168.531" x2="163.113" y2="-0.612207" gradientUnits="userSpaceOnUse">
            <stop stop-color="#724D00"/>
            <stop offset="0.253775" stop-color="#DB7E10"/>
            <stop offset="0.481441" stop-color="#F6B91C"/>
            <stop offset="0.634895" stop-color="#FFC44D"/>
            <stop offset="1" stop-color="#D89100"/>
        </linearGradient>
        <linearGradient id="paint32_linear_290_431" x1="74.7249" y1="125.909" x2="229.976" y2="-72.487" gradientUnits="userSpaceOnUse">
            <stop stop-color="#724D00"/>
            <stop offset="0.253895" stop-color="#DB7E10"/>
            <stop offset="0.3468" stop-color="#E79715"/>
            <stop offset="0.47352" stop-color="#F6B91C"/>
            <stop offset="0.776173" stop-color="#FFC44D"/>
            <stop offset="1" stop-color="#D89100"/>
        </linearGradient>
    </defs>
</svg>
