<svg width="102" height="100" viewBox="0 0 102 100" fill="none" xmlns="http://www.w3.org/2000/svg">
    <path d="M68.5098 65.5281L77.8955 60.1093L68.5098 54.6904L59.124 60.1093L68.5098 65.5281Z" fill="#F4F4F4"/>
    <path d="M68.5098 41.1332L35.6422 60.1093H47.0887L68.5098 47.7418V41.1332Z" fill="#F4F4F4"/>
    <path d="M35.6422 60.1093L68.5098 79.0853V72.4767L47.0887 60.1093H35.6422Z" fill="#F4F4F4"/>
    <path d="M68.5098 79.0853L101.377 60.1093H89.9308L68.5098 72.4767V79.0853Z" fill="#F4F4F4"/>
    <path d="M101.377 60.1093L68.5098 41.1332V47.7418L89.9308 60.1093H101.377Z" fill="#F4F4F4"/>
    <path d="M21.3746 48.3213L24.3437 45.3523L19.2011 43.6381L16.2321 46.6071L21.3746 48.3213Z" fill="#F4F4F4"/>
    <path d="M16.4822 37.7797L6.085 48.1769L11.0313 47.4117L17.8076 40.6354L16.4822 37.7797Z" fill="#F4F4F4"/>
    <path d="M6.085 48.1769L24.0935 54.1797L22.7682 51.324L11.0313 47.4117L6.085 48.1769Z" fill="#F4F4F4"/>
    <path d="M24.0935 54.1797L34.4908 43.7825L29.5445 44.5477L22.7682 51.324L24.0935 54.1797Z" fill="#F4F4F4"/>
    <path d="M34.4908 43.7825L16.4822 37.7797L17.8076 40.6354L29.5445 44.5477L34.4908 43.7825Z" fill="#F4F4F4"/>
    <path d="M42.2695 35.0028L47.412 33.2886L44.443 30.3196L39.3004 32.0338L42.2695 35.0028Z" fill="#F4F4F4"/>
    <path d="M47.1619 24.4612L29.1533 30.464L34.0996 31.2292L45.8365 27.3169L47.1619 24.4612Z" fill="#F4F4F4"/>
    <path d="M29.1533 30.464L39.5506 40.8612L40.8759 38.0055L34.0996 31.2292L29.1533 30.464Z" fill="#F4F4F4"/>
    <path d="M39.5506 40.8612L57.5591 34.8584L52.6128 34.0932L40.8759 38.0055L39.5506 40.8612Z" fill="#F4F4F4"/>
    <path d="M57.5591 34.8584L47.1619 24.4612L45.8365 27.3169L52.6128 34.0932L57.5591 34.8584Z" fill="#F4F4F4"/>
    <path d="M15.9124 64.488L18.8814 61.5189L13.7389 59.8047L10.7698 62.7738L15.9124 64.488Z" fill="#F4F4F4"/>
    <path d="M11.02 53.9463L0.622726 64.3436L5.56903 63.5784L12.3453 56.8021L11.02 53.9463Z" fill="#F4F4F4"/>
    <path d="M0.622726 64.3436L18.6313 70.3464L17.3059 67.4907L5.56903 63.5784L0.622726 64.3436Z" fill="#F4F4F4"/>
    <path d="M18.6313 70.3464L29.0285 59.9492L24.0822 60.7144L17.3059 67.4907L18.6313 70.3464Z" fill="#F4F4F4"/>
    <path d="M29.0285 59.9492L11.02 53.9463L12.3453 56.8021L24.0822 60.7144L29.0285 59.9492Z" fill="#F4F4F4"/>
    <path d="M70.9514 31.4563L76.0939 29.7422L73.1249 26.7731L67.9823 28.4873L70.9514 31.4563Z" fill="#F4F4F4"/>
    <path d="M75.8438 20.9147L57.8352 26.9175L62.7815 27.6827L74.5184 23.7704L75.8438 20.9147Z" fill="#F4F4F4"/>
    <path d="M57.8352 26.9175L68.2325 37.3148L69.5578 34.459L62.7815 27.6827L57.8352 26.9175Z" fill="#F4F4F4"/>
    <path d="M68.2325 37.3148L86.241 31.3119L81.2947 30.5467L69.5578 34.459L68.2325 37.3148Z" fill="#F4F4F4"/>
    <path d="M86.241 31.3119L75.8438 20.9147L74.5184 23.7704L81.2947 30.5467L86.241 31.3119Z" fill="#F4F4F4"/>
</svg>
