<svg width="350" height="193" viewBox="0 0 350 193" fill="none" xmlns="http://www.w3.org/2000/svg">
    <path d="M222.801 143.131L250.171 127.165L222.801 111.2L195.432 127.165L222.801 143.131Z" fill="#FF5454"/>
    <path d="M253.887 183.074L349.731 127.165H316.353L253.887 163.603V183.074Z" fill="#FF5454"/>
    <path d="M349.731 127.165L253.887 71.2565V90.7273L316.353 127.165H349.731Z" fill="#FF5454"/>
    <path d="M85.3526 92.4347L94.0106 83.687L79.0145 78.6365L70.3566 87.3842L85.3526 92.4347Z" fill="#FF5454"/>
    <path d="M71.0861 61.376L40.7671 92.0092L55.1908 89.7547L74.9509 69.7899L71.0861 61.376Z" fill="#FF5454"/>
    <path d="M93.2811 109.695L123.6 79.0621L109.176 81.3166L89.4163 101.281L93.2811 109.695Z" fill="#FF5454"/>
    <path d="M123.6 79.0621L71.0861 61.376L74.9509 69.7899L109.176 81.3166L123.6 79.0621Z" fill="#FF5454"/>
    <path d="M146.283 53.1947L161.279 48.1442L152.621 39.3965L137.625 44.447L146.283 53.1947Z" fill="#FF5454"/>
    <path d="M108.036 39.8221L138.355 70.4552L142.22 62.0414L122.459 42.0765L108.036 39.8221Z" fill="#FF5454"/>
    <path d="M138.355 70.4552L190.869 52.7691L176.445 50.5147L142.22 62.0414L138.355 70.4552Z" fill="#FF5454"/>
    <path d="M190.869 52.7691L160.55 22.136L156.685 30.5498L176.445 50.5147L190.869 52.7691Z" fill="#FF5454"/>
    <path d="M69.4243 140.066L78.0823 131.318L63.0862 126.268L53.9904 134.779L69.4243 140.066Z" fill="#FF5454"/>
    <path d="M25.2029 154.004L77.7168 171.69L73.852 163.277L39.6266 151.75L25.2029 154.004Z" fill="#FF5454"/>
    <path d="M77.7168 171.69L108.036 141.057L93.6121 143.312L73.852 163.277L77.7168 171.69Z" fill="#FF5454"/>
    <path d="M229.921 42.7458L244.917 37.6953L236.259 28.9476L221.263 33.9981L229.921 42.7458Z" fill="#FF5454"/>
    <path d="M244.188 11.6871L191.674 29.3731L206.098 31.6276L240.323 20.1009L244.188 11.6871Z" fill="#FF5454"/>
    <path d="M191.674 29.3731L221.993 60.0063L225.858 51.5924L206.098 31.6276L191.674 29.3731Z" fill="#FF5454"/>
    <path d="M221.993 60.0063L274.507 42.3202L260.083 40.0657L225.858 51.5924L221.993 60.0063Z" fill="#FF5454"/>
    <path d="M30.5878 120.764L0.268799 151.397L14.6925 149.143L34.4526 129.178L30.5878 120.764Z" fill="#FF5454"/>
    <path d="M110.186 120.428L57.672 102.742L61.5368 111.156L95.7623 122.683L110.186 120.428Z" fill="#FF5454"/>
    <path d="M218.303 66.7738L122.459 122.683H155.838L218.303 86.2446V66.7738Z" fill="#FF5454"/>
    <path d="M122.459 136.671L218.303 192.579V173.108L155.838 136.671H122.459Z" fill="#FF5454"/>
    <path d="M288.931 30.9348L258.612 0.301636L254.747 8.71547L274.507 28.6803L288.931 30.9348Z" fill="#FF5454"/>
    <path d="M165.144 5.39694L112.63 23.083L127.054 25.3375L161.279 13.8108L165.144 5.39694Z" fill="#FF5454"/>
</svg>
