<svg width="30" height="30" viewBox="0 0 30 30" fill="none" xmlns="http://www.w3.org/2000/svg">
    <path fill-rule="evenodd" clip-rule="evenodd" d="M30 15C30 23.2843 23.2843 30 15 30C6.71573 30 0 23.2843 0 15C0 6.71573 6.71573 0 15 0C23.2843 0 30 6.71573 30 15ZM15.0614 13.4704C12.8369 13.4704 10.5335 11.4432 10.5335 8.94256C10.5335 6.44188 12.5607 4.41469 15.0614 4.41469C17.562 4.41469 19.5892 6.44188 19.5892 8.94256C19.5892 11.4432 17.2859 13.4704 15.0614 13.4704ZM22.3485 15.5278C23.3557 16.1989 23.5764 16.6085 24.057 17.7193C24.3854 18.4784 24.7557 20.1403 24.9828 21.2556C22.9984 24.7089 19.273 27.0345 15.0044 27.0345C10.7295 27.0345 6.99933 24.7021 5.01719 21.2404C5.22757 20.1252 5.57292 18.475 5.89987 17.7193C6.38042 16.6085 6.65888 16.1989 7.66609 15.5278C9.03429 14.6163 11.6654 14.213 11.6654 14.213C11.6654 14.213 12.7993 15.5278 15.0614 15.5278C16.6324 15.5278 18.3492 14.213 18.3492 14.213C18.3492 14.213 20.9803 14.6163 22.3485 15.5278Z" fill="#F4F4F4"/>
</svg>
