<svg width="30" height="30" viewBox="0 0 30 30" fill="none" xmlns="http://www.w3.org/2000/svg">
    <path d="M15 30C12.925 30 10.975 29.606 9.15 28.818C7.325 28.031 5.7375 26.9625 4.3875 25.6125C3.0375 24.2625 1.969 22.675 1.182 20.85C0.394 19.025 0 17.075 0 15C0 12.925 0.394 10.975 1.182 9.15C1.969 7.325 3.0375 5.7375 4.3875 4.3875C5.7375 3.0375 7.325 1.9685 9.15 1.1805C10.975 0.3935 12.925 0 15 0H15.375C15.7 0 15.969 0.106 16.182 0.318C16.394 0.531 16.5 0.8 16.5 1.125V12.4125C16.95 12.6875 17.3125 13.0435 17.5875 13.4805C17.8625 13.9185 18 14.425 18 15C18 15.825 17.7065 16.531 17.1195 17.118C16.5315 17.706 15.825 18 15 18C14.175 18 13.469 17.706 12.882 17.118C12.294 16.531 12 15.825 12 15C12 14.425 12.1375 13.9125 12.4125 13.4625C12.6875 13.0125 13.05 12.6625 13.5 12.4125V9.1875C12.2 9.5375 11.125 10.2435 10.275 11.3055C9.425 12.3685 9 13.6 9 15C9 16.65 9.5875 18.0625 10.7625 19.2375C11.9375 20.4125 13.35 21 15 21C16.65 21 18.0625 20.4125 19.2375 19.2375C20.4125 18.0625 21 16.65 21 15C21 14.425 20.919 13.856 20.757 13.293C20.594 12.731 20.35 12.2 20.025 11.7C19.8 11.35 19.7065 11.006 19.7445 10.668C19.7815 10.331 19.925 10.0375 20.175 9.7875C20.475 9.4875 20.856 9.3375 21.318 9.3375C21.781 9.3375 22.15 9.5375 22.425 9.9375C22.975 10.7375 23.375 11.5685 23.625 12.4305C23.875 13.2935 24 14.15 24 15C24 17.5 23.125 19.625 21.375 21.375C19.625 23.125 17.5 24 15 24C12.5 24 10.375 23.125 8.625 21.375C6.875 19.625 6 17.5 6 15C6 12.75 6.7125 10.794 8.1375 9.132C9.5625 7.469 11.35 6.4625 13.5 6.1125V3.075C10.525 3.45 8.0315 4.7625 6.0195 7.0125C4.0065 9.2625 3 11.925 3 15C3 18.35 4.1625 21.1875 6.4875 23.5125C8.8125 25.8375 11.65 27 15 27C18.35 27 21.1875 25.8375 23.5125 23.5125C25.8375 21.1875 27 18.35 27 15C27 13.525 26.7875 12.2 26.3625 11.025C25.9375 9.85 25.3375 8.7625 24.5625 7.7625C24.2875 7.4125 24.1565 7.0375 24.1695 6.6375C24.1815 6.2375 24.3375 5.8875 24.6375 5.5875C24.9375 5.2875 25.294 5.1375 25.707 5.1375C26.119 5.1375 26.45 5.3 26.7 5.625C27.75 6.9 28.5625 8.3125 29.1375 9.8625C29.7125 11.4125 30 13.125 30 15C30 17.075 29.606 19.025 28.818 20.85C28.031 22.675 26.9625 24.2625 25.6125 25.6125C24.2625 26.9625 22.675 28.031 20.85 28.818C19.025 29.606 17.075 30 15 30Z" fill="#F4F4F4"/>
</svg>
