<svg width="28" height="28" viewBox="0 0 28 28" fill="none" xmlns="http://www.w3.org/2000/svg">
    <path d="M0 10.4444C0 11.549 0.895431 12.4444 2 12.4444H10.4444C11.549 12.4444 12.4444 11.549 12.4444 10.4444V2C12.4444 0.895428 11.549 0 10.4444 0H2C0.895428 0 0 0.895431 0 2V10.4444ZM3.11111 5.11111C3.11111 4.00654 4.00654 3.11111 5.11111 3.11111H7.33334C8.43791 3.11111 9.33333 4.00654 9.33333 5.11111V7.33334C9.33333 8.43791 8.4379 9.33333 7.33333 9.33333H5.11111C4.00654 9.33333 3.11111 8.4379 3.11111 7.33333V5.11111Z" fill="#F4F4F4"/>
    <path d="M0 26C0 27.1046 0.895431 28 2 28H10.4444C11.549 28 12.4444 27.1046 12.4444 26V17.5556C12.4444 16.451 11.549 15.5556 10.4444 15.5556H2C0.895428 15.5556 0 16.451 0 17.5556V26ZM3.11111 20.6667C3.11111 19.5621 4.00654 18.6667 5.11111 18.6667H7.33334C8.43791 18.6667 9.33333 19.5621 9.33333 20.6667V22.8889C9.33333 23.9935 8.4379 24.8889 7.33333 24.8889H5.11111C4.00654 24.8889 3.11111 23.9935 3.11111 22.8889V20.6667Z" fill="#F4F4F4"/>
    <path d="M17.5556 0C16.451 0 15.5556 0.895431 15.5556 2V10.4444C15.5556 11.549 16.451 12.4444 17.5556 12.4444H26C27.1046 12.4444 28 11.549 28 10.4444V2C28 0.895428 27.1046 0 26 0H17.5556ZM24.8889 7.33334C24.8889 8.43791 23.9935 9.33333 22.8889 9.33333H20.6667C19.5621 9.33333 18.6667 8.4379 18.6667 7.33333V5.11111C18.6667 4.00654 19.5621 3.11111 20.6667 3.11111H22.8889C23.9935 3.11111 24.8889 4.00654 24.8889 5.11111V7.33334Z" fill="#F4F4F4"/>
    <path d="M28 26.4444C28 25.5853 27.3036 24.8889 26.4444 24.8889H24.8889V26.4444C24.8889 27.3036 25.5853 28 26.4444 28C27.3036 28 28 27.3036 28 26.4444Z" fill="#F4F4F4"/>
    <path d="M18.6667 17.1111C18.6667 16.252 17.9702 15.5556 17.1111 15.5556C16.252 15.5556 15.5556 16.252 15.5556 17.1111C15.5556 17.9702 16.252 18.6667 17.1111 18.6667H18.6667V17.1111Z" fill="#F4F4F4"/>
    <path d="M21.7778 18.6667H18.6667V21.7778H21.7778V18.6667Z" fill="#F4F4F4"/>
    <path d="M18.6667 21.7778H17.1111C16.252 21.7778 15.5556 22.4742 15.5556 23.3333C15.5556 24.1924 16.252 24.8889 17.1111 24.8889H18.6667V21.7778Z" fill="#F4F4F4"/>
    <path d="M21.7778 24.8889H18.6667V26.4444C18.6667 27.3036 19.3631 28 20.2222 28C21.0813 28 21.7778 27.3036 21.7778 26.4444V24.8889Z" fill="#F4F4F4"/>
    <path d="M24.8889 21.7778H21.7778V24.8889H24.8889V21.7778Z" fill="#F4F4F4"/>
    <path d="M24.8889 17.1111C24.8889 16.252 24.1924 15.5556 23.3333 15.5556C22.4742 15.5556 21.7778 16.252 21.7778 17.1111V18.6667H24.8889V17.1111Z" fill="#F4F4F4"/>
    <path d="M28 20.2222C28 19.3631 27.3036 18.6667 26.4444 18.6667H24.8889V21.7778H26.4444C27.3036 21.7778 28 21.0813 28 20.2222Z" fill="#F4F4F4"/>
</svg>
