<svg width="34" height="29" viewBox="0 0 34 29" fill="none" xmlns="http://www.w3.org/2000/svg">
    <path d="M12.4804 16.2599C15.8088 16.2599 18.507 13.5617 18.507 10.2333C18.507 6.90493 15.8088 4.20672 12.4804 4.20672C9.15195 4.20672 6.45375 6.90493 6.45375 10.2333C6.45375 13.5617 9.15195 16.2599 12.4804 16.2599Z" fill="#F4F4F4"/>
    <path d="M12.4804 19.2732C8.45759 19.2732 0.427139 21.2922 0.427139 25.2998C0.427139 26.964 1.77624 28.3132 3.44044 28.3132H21.5203C23.1845 28.3132 24.5336 26.964 24.5336 25.2998C24.5336 21.2922 16.5031 19.2732 12.4804 19.2732ZM25.3521 6.34511C24.8079 5.40858 23.5338 5.3911 22.7701 6.1593C22.1177 6.81559 22.0757 7.83972 22.356 8.72162C22.6641 9.69083 22.6679 10.723 22.3674 11.6937C22.0873 12.5987 22.129 13.6474 22.7969 14.3192C23.5557 15.0825 24.8184 15.0942 25.3755 14.1733C26.822 11.7822 26.8142 8.86087 25.3521 6.34511ZM30.3313 1.03882C29.7285 0.262241 28.5889 0.25685 27.8938 0.951977C27.2281 1.61769 27.2181 2.68299 27.7524 3.45812C30.5366 7.49687 30.5268 12.8006 27.7228 16.9924C27.1975 17.7777 27.2215 18.8424 27.8896 19.5105C28.5909 20.2118 29.7384 20.2179 30.3559 19.4418C34.647 14.0482 34.6482 6.60042 30.3313 1.03882Z" fill="#F4F4F4"/>
</svg>
