<svg width="370" height="600" viewBox="0 0 370 600" fill="none" xmlns="http://www.w3.org/2000/svg">
    <path d="M201.86 138.928C163.144 170.635 150.374 193.585 143.062 216.082C133.923 244.204 147.727 179.474 113.983 288.441C86.9867 375.616 75.5508 380.068 73.2073 371.397C70.6295 375.85 62.5213 408.367 73.2072 427.489C113.983 378.063 104.985 363.805 113.983 350.307C125.23 333.435 132.963 307.423 137.181 292.659C141.399 277.896 149.054 237.22 201.86 138.928Z" fill="#F9FFFE"/>
    <path d="M280.598 119.907C256.71 150.914 235.406 176.32 228.095 198.817C218.956 226.938 206.253 242.86 201.86 263.832C198.044 282.047 191.028 282.764 181.216 327.462C160.791 394.405 122.975 371.397 149.054 414.68C178.353 400.025 192.862 349.742 201.86 336.244C213.107 319.371 220.84 293.36 225.059 278.596C229.277 263.833 241.355 209.744 280.598 119.907Z" fill="#F9FFFE"/>
    <path d="M334.169 187.505C302.391 212.219 287.909 228.681 280.598 251.178C271.459 279.299 268.647 246.258 234.902 355.225C207.906 442.4 187.569 429.072 194.126 438.181C199.75 445.993 191.028 451.202 191.028 480.093C242.247 465.813 256.07 345.143 271.89 347.516C267.144 315.071 298.172 278.595 302.391 263.832C306.609 249.068 304.862 253.615 334.169 187.505Z" fill="#F9FFFE"/>
</svg>
