<svg width="294" height="172" viewBox="0 0 294 172" fill="none" xmlns="http://www.w3.org/2000/svg">
    <path d="M198.06 131.691L225.429 115.725L198.06 99.7597L170.69 115.725L198.06 131.691Z" fill="#24E1BB"/>
    <path d="M198.06 59.8164L102.216 115.725H135.594L198.06 79.2872V59.8164Z" fill="#24E1BB"/>
    <path d="M102.216 115.725L198.06 171.634V152.163L135.594 115.725H102.216Z" fill="#24E1BB"/>
    <path d="M198.06 171.634L293.903 115.725H260.525L198.06 152.163V171.634Z" fill="#24E1BB"/>
    <path d="M293.903 115.725L198.06 59.8164V79.2872L260.525 115.725H293.903Z" fill="#24E1BB"/>
    <path d="M60.6108 80.9946L69.2687 72.2469L54.2727 67.1964L45.6147 75.9441L60.6108 80.9946Z" fill="#24E1BB"/>
    <path d="M46.3442 49.9359L16.0253 80.5691L30.449 78.3146L50.209 58.3498L46.3442 49.9359Z" fill="#24E1BB"/>
    <path d="M16.0253 80.5691L68.5392 98.2551L64.6744 89.8413L30.449 78.3146L16.0253 80.5691Z" fill="#24E1BB"/>
    <path d="M68.5392 98.2551L98.8582 67.622L84.4345 69.8765L64.6744 89.8413L68.5392 98.2551Z" fill="#24E1BB"/>
    <path d="M98.8582 67.622L46.3442 49.9359L50.209 58.3498L84.4345 69.8765L98.8582 67.622Z" fill="#24E1BB"/>
    <path d="M121.541 41.7546L136.537 36.7041L127.879 27.9564L112.883 33.0069L121.541 41.7546Z" fill="#24E1BB"/>
    <path d="M135.808 10.6959L83.2939 28.3819L97.7176 30.6364L131.943 19.1097L135.808 10.6959Z" fill="#24E1BB"/>
    <path d="M83.2939 28.3819L113.613 59.0151L117.478 50.6012L97.7176 30.6364L83.2939 28.3819Z" fill="#24E1BB"/>
    <path d="M113.613 59.0151L166.127 41.329L151.703 39.0746L117.478 50.6012L113.613 59.0151Z" fill="#24E1BB"/>
    <path d="M166.127 41.329L135.808 10.6959L131.943 19.1097L151.703 39.0746L166.127 41.329Z" fill="#24E1BB"/>
    <path d="M44.6824 128.626L53.3404 119.878L38.3443 114.828L29.6864 123.576L44.6824 128.626Z" fill="#24E1BB"/>
    <path d="M30.4159 97.5674L0.0969238 128.201L14.5206 125.946L34.2807 105.981L30.4159 97.5674Z" fill="#24E1BB"/>
    <path d="M0.0969238 128.201L52.6109 145.887L48.7461 137.473L14.5206 125.946L0.0969238 128.201Z" fill="#24E1BB"/>
    <path d="M52.6109 145.887L82.9298 115.253L68.5061 117.508L48.7461 137.473L52.6109 145.887Z" fill="#24E1BB"/>
    <path d="M82.9298 115.253L30.4159 97.5674L34.2807 105.981L68.5061 117.508L82.9298 115.253Z" fill="#24E1BB"/>
    <path d="M205.179 31.3057L220.175 26.2552L211.517 17.5075L196.521 22.5579L205.179 31.3057Z" fill="#24E1BB"/>
    <path d="M219.446 0.246948L166.932 17.933L181.356 20.1875L215.581 8.66078L219.446 0.246948Z" fill="#24E1BB"/>
    <path d="M166.932 17.933L197.251 48.5661L201.116 40.1523L181.356 20.1875L166.932 17.933Z" fill="#24E1BB"/>
    <path d="M197.251 48.5661L249.765 30.8801L235.341 28.6256L201.116 40.1523L197.251 48.5661Z" fill="#24E1BB"/>
    <path d="M249.765 30.8801L219.446 0.246948L215.581 8.66078L235.341 28.6256L249.765 30.8801Z" fill="#24E1BB"/>
</svg>
