<svg width="45" height="45" viewBox="0 0 45 45" fill="none" xmlns="http://www.w3.org/2000/svg">
    <path d="M20.9206 20.9922C20.9206 20.9922 14.8893 20.9922 14.8893 25.0167L16.3342 30.4656C18.1073 31.6221 20.2252 32.2941 22.5 32.2941C24.7748 32.2941 26.8927 31.6221 28.6658 30.4657L30.1107 25.0167C30.1107 20.9922 24.0794 20.9922 24.0794 20.9922M20.9206 20.9922C20.9206 20.9922 21.8832 20.9922 22.5 20.9922M20.9206 20.9922H22.5M24.0794 20.9922C24.0794 20.9922 23.1168 20.9922 22.5 20.9922M24.0794 20.9922H22.5M22.5 20.9922C20.2118 20.9922 18.3568 19.1372 18.3568 16.849C18.3568 14.5608 20.2118 12.7059 22.5 12.7059C24.7882 12.7059 26.6431 14.5608 26.6431 16.849C26.6431 19.1372 24.7882 20.9922 22.5 20.9922Z" stroke="#F4F4F4"/>
</svg>