<svg width="290" height="154" viewBox="0 0 290 154" fill="none" xmlns="http://www.w3.org/2000/svg">
    <path d="M251.61 138.196L262.344 132.259L251.61 126.323L240.875 132.259L251.61 138.196Z" fill="#24E1BB"/>
    <path d="M251.61 111.471L214.019 132.259H227.11L251.61 118.711V111.471Z" fill="#24E1BB"/>
    <path d="M214.019 132.259L251.61 153.047V145.808L227.11 132.259H214.019Z" fill="#24E1BB"/>
    <path d="M251.61 153.047L289.201 132.259H276.109L251.61 145.808V153.047Z" fill="#24E1BB"/>
    <path d="M289.201 132.259L251.61 111.471V118.711L276.109 132.259H289.201Z" fill="#24E1BB"/>
    <path d="M197.701 119.346L201.097 116.093L195.215 114.215L191.819 117.468L197.701 119.346Z" fill="#24E1BB"/>
    <path d="M192.105 107.797L180.214 119.188L185.871 118.349L193.621 110.926L192.105 107.797Z" fill="#24E1BB"/>
    <path d="M180.214 119.188L200.811 125.764L199.295 122.635L185.871 118.349L180.214 119.188Z" fill="#24E1BB"/>
    <path d="M200.811 125.764L212.702 114.374L207.045 115.212L199.295 122.635L200.811 125.764Z" fill="#24E1BB"/>
    <path d="M212.702 114.374L192.105 107.797L193.621 110.926L207.045 115.212L212.702 114.374Z" fill="#24E1BB"/>
    <path d="M221.599 104.755L227.48 102.878L224.084 99.625L218.203 101.503L221.599 104.755Z" fill="#24E1BB"/>
    <path d="M227.194 93.2072L206.597 99.7833L212.255 100.622L225.678 96.3356L227.194 93.2072Z" fill="#24E1BB"/>
    <path d="M206.597 99.7833L218.489 111.173L220.005 108.045L212.255 100.622L206.597 99.7833Z" fill="#24E1BB"/>
    <path d="M218.489 111.173L239.085 104.597L233.428 103.759L220.005 108.045L218.489 111.173Z" fill="#24E1BB"/>
    <path d="M239.085 104.597L227.194 93.2072L225.678 96.3356L233.428 103.759L239.085 104.597Z" fill="#24E1BB"/>
    <path d="M191.454 137.056L194.849 133.804L188.968 131.926L185.572 135.178L191.454 137.056Z" fill="#24E1BB"/>
    <path d="M185.858 125.508L173.967 136.898L179.624 136.06L187.374 128.636L185.858 125.508Z" fill="#24E1BB"/>
    <path d="M173.967 136.898L194.563 143.474L193.047 140.346L179.624 136.06L173.967 136.898Z" fill="#24E1BB"/>
    <path d="M194.563 143.474L206.455 132.084L200.798 132.922L193.047 140.346L194.563 143.474Z" fill="#24E1BB"/>
    <path d="M206.455 132.084L185.858 125.508L187.374 128.636L200.798 132.922L206.455 132.084Z" fill="#24E1BB"/>
    <path d="M254.402 100.87L260.284 98.9925L256.888 95.7399L251.007 97.6178L254.402 100.87Z" fill="#24E1BB"/>
    <path d="M259.998 89.322L239.401 95.8981L245.058 96.7364L258.482 92.4505L259.998 89.322Z" fill="#24E1BB"/>
    <path d="M239.401 95.8981L251.293 107.288L252.808 104.16L245.058 96.7364L239.401 95.8981Z" fill="#24E1BB"/>
    <path d="M251.293 107.288L271.889 100.712L266.232 99.8739L252.808 104.16L251.293 107.288Z" fill="#24E1BB"/>
    <path d="M271.889 100.712L259.998 89.322L258.482 92.4505L266.232 99.8739L271.889 100.712Z" fill="#24E1BB"/>
    <path d="M200.247 51.3469L207.402 48.7078L200.247 46.0686L193.091 48.7078L200.247 51.3469Z" fill="#24E1BB"/>
    <path d="M200.247 39.4659L175.19 48.7078H183.916L200.247 42.6845V39.4659Z" fill="#24E1BB"/>
    <path d="M175.19 48.7078L200.247 57.9497V54.7311L183.916 48.7078H175.19Z" fill="#24E1BB"/>
    <path d="M200.247 57.9497L225.304 48.7078H216.577L200.247 54.7311V57.9497Z" fill="#24E1BB"/>
    <path d="M225.304 48.7078L200.247 39.4659V42.6845L216.577 48.7078H225.304Z" fill="#24E1BB"/>
    <path d="M164.312 42.9667L166.576 41.5207L162.655 40.6858L160.392 42.1319L164.312 42.9667Z" fill="#24E1BB"/>
    <path d="M160.583 37.8326L152.656 42.8964L156.427 42.5237L161.593 39.2235L160.583 37.8326Z" fill="#24E1BB"/>
    <path d="M152.656 42.8964L166.385 45.8199L165.375 44.4291L156.427 42.5237L152.656 42.8964Z" fill="#24E1BB"/>
    <path d="M166.385 45.8199L174.312 40.7562L170.541 41.1289L165.375 44.4291L166.385 45.8199Z" fill="#24E1BB"/>
    <path d="M174.312 40.7562L160.583 37.8326L161.593 39.2235L170.541 41.1289L174.312 40.7562Z" fill="#24E1BB"/>
    <path d="M180.242 36.4802L184.162 35.6454L181.899 34.1994L177.978 35.0342L180.242 36.4802Z" fill="#24E1BB"/>
    <path d="M183.972 31.3461L170.243 34.2697L174.014 34.6424L182.961 32.737L183.972 31.3461Z" fill="#24E1BB"/>
    <path d="M170.243 34.2697L178.169 39.3334L179.18 37.9426L174.014 34.6424L170.243 34.2697Z" fill="#24E1BB"/>
    <path d="M178.169 39.3334L191.898 36.4099L188.127 36.0372L179.18 37.9426L178.169 39.3334Z" fill="#24E1BB"/>
    <path d="M191.898 36.4099L183.972 31.3461L182.961 32.737L188.127 36.0372L191.898 36.4099Z" fill="#24E1BB"/>
    <path d="M160.148 50.8403L162.412 49.3943L158.491 48.5595L156.228 50.0055L160.148 50.8403Z" fill="#24E1BB"/>
    <path d="M156.418 45.7062L148.492 50.77L152.263 50.3973L157.429 47.0971L156.418 45.7062Z" fill="#24E1BB"/>
    <path d="M148.492 50.77L162.221 53.6935L161.211 52.3027L152.263 50.3973L148.492 50.77Z" fill="#24E1BB"/>
    <path d="M162.221 53.6935L170.147 48.6298L166.377 49.0025L161.211 52.3027L162.221 53.6935Z" fill="#24E1BB"/>
    <path d="M170.147 48.6298L156.418 45.7062L157.429 47.0971L166.377 49.0025L170.147 48.6298Z" fill="#24E1BB"/>
    <path d="M202.108 34.753L206.029 33.9181L203.765 32.4721L199.844 33.307L202.108 34.753Z" fill="#24E1BB"/>
    <path d="M205.838 29.6189L192.109 32.5425L195.88 32.9151L204.827 31.0097L205.838 29.6189Z" fill="#24E1BB"/>
    <path d="M192.109 32.5425L200.035 37.6062L201.046 36.2154L195.88 32.9151L192.109 32.5425Z" fill="#24E1BB"/>
    <path d="M200.035 37.6062L213.764 34.6827L209.993 34.31L201.046 36.2154L200.035 37.6062Z" fill="#24E1BB"/>
    <path d="M213.764 34.6827L205.838 29.6189L204.827 31.0097L209.993 34.31L213.764 34.6827Z" fill="#24E1BB"/>
    <path d="M95.0906 52.9013L100.189 50.8835L95.0906 48.8657L89.992 50.8835L95.0906 52.9013Z" fill="#24E1BB"/>
    <path d="M95.0906 43.8174L77.2361 50.8835H83.4541L95.0906 46.2782V43.8174Z" fill="#24E1BB"/>
    <path d="M77.2361 50.8835L95.0906 57.9496V55.4888L83.4541 50.8835H77.2361Z" fill="#24E1BB"/>
    <path d="M95.0906 57.9496L112.945 50.8835H106.727L95.0906 55.4888V57.9496Z" fill="#24E1BB"/>
    <path d="M112.945 50.8835L95.0906 43.8174V46.2782L106.727 50.8835H112.945Z" fill="#24E1BB"/>
    <path d="M69.4855 46.494L71.0984 45.3884L68.3048 44.7501L66.6919 45.8557L69.4855 46.494Z" fill="#24E1BB"/>
    <path d="M66.8278 42.5686L61.1797 46.4402L63.8667 46.1553L67.5478 43.632L66.8278 42.5686Z" fill="#24E1BB"/>
    <path d="M61.1797 46.4402L70.9625 48.6755L70.2425 47.6121L63.8667 46.1553L61.1797 46.4402Z" fill="#24E1BB"/>
    <path d="M70.9625 48.6755L76.6105 44.8039L73.9236 45.0888L70.2425 47.6121L70.9625 48.6755Z" fill="#24E1BB"/>
    <path d="M76.6105 44.8039L66.8278 42.5686L67.5478 43.632L73.9236 45.0888L76.6105 44.8039Z" fill="#24E1BB"/>
    <path d="M80.8361 41.5346L83.6297 40.8963L82.0169 39.7907L79.2233 40.429L80.8361 41.5346Z" fill="#24E1BB"/>
    <path d="M83.4938 37.6092L73.7111 39.8445L76.3981 40.1294L82.7739 38.6726L83.4938 37.6092Z" fill="#24E1BB"/>
    <path d="M73.7111 39.8445L79.3592 43.7161L80.0791 42.6527L76.3981 40.1294L73.7111 39.8445Z" fill="#24E1BB"/>
    <path d="M79.3592 43.7161L89.1419 41.4808L86.4549 41.1959L80.0791 42.6527L79.3592 43.7161Z" fill="#24E1BB"/>
    <path d="M89.1419 41.4808L83.4938 37.6092L82.7739 38.6726L86.4549 41.1959L89.1419 41.4808Z" fill="#24E1BB"/>
    <path d="M66.5182 52.514L68.1311 51.4084L65.3375 50.7701L63.7246 51.8757L66.5182 52.514Z" fill="#24E1BB"/>
    <path d="M63.8605 48.5886L58.2125 52.4602L60.8994 52.1753L64.5805 49.652L63.8605 48.5886Z" fill="#24E1BB"/>
    <path d="M58.2125 52.4602L67.9952 54.6955L67.2752 53.6321L60.8994 52.1753L58.2125 52.4602Z" fill="#24E1BB"/>
    <path d="M67.9952 54.6955L73.6433 50.8239L70.9563 51.1088L67.2752 53.6321L67.9952 54.6955Z" fill="#24E1BB"/>
    <path d="M73.6433 50.8239L63.8605 48.5886L64.5805 49.652L70.9563 51.1088L73.6433 50.8239Z" fill="#24E1BB"/>
    <path d="M96.417 40.214L99.2105 39.5757L97.5977 38.4701L94.8041 39.1084L96.417 40.214Z" fill="#24E1BB"/>
    <path d="M99.0746 36.2886L89.2919 38.5239L91.9789 38.8088L98.3547 37.352L99.0746 36.2886Z" fill="#24E1BB"/>
    <path d="M89.2919 38.5239L94.94 42.3955L95.66 41.3321L91.9789 38.8088L89.2919 38.5239Z" fill="#24E1BB"/>
    <path d="M94.94 42.3955L104.723 40.1602L102.036 39.8753L95.66 41.3321L94.94 42.3955Z" fill="#24E1BB"/>
    <path d="M104.723 40.1602L99.0746 36.2886L98.3547 37.352L102.036 39.8753L104.723 40.1602Z" fill="#24E1BB"/>
    <path d="M92.2715 10.32L95.859 9.40349L92.2715 8.48694L88.684 9.40349L92.2715 10.32Z" fill="#24E1BB"/>
    <path d="M92.2715 6.19387L79.7085 9.40349H84.0837L92.2715 7.31165V6.19387Z" fill="#24E1BB"/>
    <path d="M79.7085 9.40349L92.2715 12.6131V11.4953L84.0837 9.40349H79.7085Z" fill="#24E1BB"/>
    <path d="M92.2715 12.6131L104.834 9.40349H100.459L92.2715 11.4953V12.6131Z" fill="#24E1BB"/>
    <path d="M104.834 9.40349L92.2715 6.19387V7.31165L100.459 9.40349H104.834Z" fill="#24E1BB"/>
    <path d="M74.255 7.40967L75.3899 6.90748L73.4242 6.61755L72.2894 7.11973L74.255 7.40967Z" fill="#24E1BB"/>
    <path d="M72.385 5.62665L68.4109 7.38524L70.3015 7.25582L72.8916 6.10968L72.385 5.62665Z" fill="#24E1BB"/>
    <path d="M68.4109 7.38524L75.2943 8.40057L74.7877 7.91754L70.3015 7.25582L68.4109 7.38524Z" fill="#24E1BB"/>
    <path d="M75.2943 8.40057L79.2684 6.64198L77.3778 6.7714L74.7877 7.91754L75.2943 8.40057Z" fill="#24E1BB"/>
    <path d="M79.2684 6.64198L72.385 5.62665L72.8916 6.10968L77.3778 6.7714L79.2684 6.64198Z" fill="#24E1BB"/>
    <path d="M82.2416 5.15698L84.2073 4.86704L83.0724 4.36485L81.1068 4.65479L82.2416 5.15698Z" fill="#24E1BB"/>
    <path d="M84.1117 3.37396L77.2283 4.38928L79.1189 4.51871L83.6051 3.85698L84.1117 3.37396Z" fill="#24E1BB"/>
    <path d="M77.2283 4.38928L81.2024 6.14787L81.709 5.66485L79.1189 4.51871L77.2283 4.38928Z" fill="#24E1BB"/>
    <path d="M81.2024 6.14787L88.0858 5.13255L86.1952 5.00312L81.709 5.66485L81.2024 6.14787Z" fill="#24E1BB"/>
    <path d="M88.0858 5.13255L84.1117 3.37396L83.6051 3.85698L86.1952 5.00312L88.0858 5.13255Z" fill="#24E1BB"/>
    <path d="M72.1672 10.1441L73.302 9.64192L71.3364 9.35198L70.2015 9.85417L72.1672 10.1441Z" fill="#24E1BB"/>
    <path d="M70.2972 8.36109L66.323 10.1197L68.2136 9.99025L70.8037 8.84411L70.2972 8.36109Z" fill="#24E1BB"/>
    <path d="M66.323 10.1197L73.2064 11.135L72.6998 10.652L68.2136 9.99025L66.323 10.1197Z" fill="#24E1BB"/>
    <path d="M73.2064 11.135L77.1806 9.37641L75.2899 9.50583L72.6998 10.652L73.2064 11.135Z" fill="#24E1BB"/>
    <path d="M77.1806 9.37641L70.2972 8.36109L70.8037 8.84411L75.2899 9.50583L77.1806 9.37641Z" fill="#24E1BB"/>
    <path d="M93.2047 4.55713L95.1704 4.26719L94.0355 3.765L92.0699 4.05494L93.2047 4.55713Z" fill="#24E1BB"/>
    <path d="M95.0748 2.77411L88.1914 3.78943L90.082 3.91885L94.5682 3.25713L95.0748 2.77411Z" fill="#24E1BB"/>
    <path d="M88.1914 3.78943L92.1655 5.54802L92.6721 5.065L90.082 3.91885L88.1914 3.78943Z" fill="#24E1BB"/>
    <path d="M92.1655 5.54802L99.0489 4.5327L97.1583 4.40327L92.6721 5.065L92.1655 5.54802Z" fill="#24E1BB"/>
    <path d="M99.0489 4.5327L95.0748 2.77411L94.5682 3.25713L97.1583 4.40327L99.0489 4.5327Z" fill="#24E1BB"/>
    <path d="M22.9752 7.8282L26.0412 6.90855L22.9752 5.9889L19.9093 6.90855L22.9752 7.8282Z" fill="#24E1BB"/>
    <path d="M22.9752 3.68807L12.2387 6.90855H15.9778L22.9752 4.80963V3.68807Z" fill="#24E1BB"/>
    <path d="M12.2387 6.90855L22.9752 10.129V9.00746L15.9778 6.90855H12.2387Z" fill="#24E1BB"/>
    <path d="M22.9752 10.129L33.7117 6.90855H29.9726L22.9752 9.00746V10.129Z" fill="#24E1BB"/>
    <path d="M33.7117 6.90855L22.9752 3.68807V4.80963L29.9726 6.90855H33.7117Z" fill="#24E1BB"/>
    <path d="M7.57811 4.90799L8.54798 4.4041L6.86812 4.11318L5.89824 4.61707L7.57811 4.90799Z" fill="#24E1BB"/>
    <path d="M5.97996 3.11893L2.58362 4.88347L4.19937 4.75361L6.4129 3.60359L5.97996 3.11893Z" fill="#24E1BB"/>
    <path d="M2.58362 4.88347L8.46626 5.90223L8.03332 5.41758L4.19937 4.75361L2.58362 4.88347Z" fill="#24E1BB"/>
    <path d="M8.46626 5.90223L11.8626 4.13769L10.2469 4.26755L8.03332 5.41758L8.46626 5.90223Z" fill="#24E1BB"/>
    <path d="M11.8626 4.13769L5.97996 3.11893L6.4129 3.60359L10.2469 4.26755L11.8626 4.13769Z" fill="#24E1BB"/>
    <path d="M14.4036 2.64767L16.0835 2.35675L15.1136 1.85286L13.4337 2.14378L14.4036 2.64767Z" fill="#24E1BB"/>
    <path d="M16.0017 0.858613L10.1191 1.87737L11.7348 2.00724L15.5688 1.34327L16.0017 0.858613Z" fill="#24E1BB"/>
    <path d="M10.1191 1.87737L13.5154 3.64191L13.9484 3.15726L11.7348 2.00724L10.1191 1.87737Z" fill="#24E1BB"/>
    <path d="M13.5154 3.64191L19.3981 2.62316L17.7823 2.49329L13.9484 3.15726L13.5154 3.64191Z" fill="#24E1BB"/>
    <path d="M19.3981 2.62316L16.0017 0.858613L15.5688 1.34327L17.7823 2.49329L19.3981 2.62316Z" fill="#24E1BB"/>
    <path d="M5.79381 7.65167L6.76368 7.14779L5.08382 6.85687L4.11394 7.36075L5.79381 7.65167Z" fill="#24E1BB"/>
    <path d="M4.19566 5.86262L0.799316 7.62716L2.41507 7.4973L4.6286 6.34728L4.19566 5.86262Z" fill="#24E1BB"/>
    <path d="M0.799316 7.62716L6.68196 8.64592L6.24902 8.16126L2.41507 7.4973L0.799316 7.62716Z" fill="#24E1BB"/>
    <path d="M6.68196 8.64592L10.0783 6.88138L8.46256 7.01124L6.24902 8.16126L6.68196 8.64592Z" fill="#24E1BB"/>
    <path d="M10.0783 6.88138L4.19566 5.86262L4.6286 6.34728L8.46256 7.01124L10.0783 6.88138Z" fill="#24E1BB"/>
    <path d="M23.7728 2.04578L25.4527 1.75486L24.4828 1.25098L22.8029 1.5419L23.7728 2.04578Z" fill="#24E1BB"/>
    <path d="M25.3709 0.256729L19.4883 1.27549L21.104 1.40535L24.938 0.741386L25.3709 0.256729Z" fill="#24E1BB"/>
    <path d="M19.4883 1.27549L22.8846 3.04003L23.3176 2.55537L21.104 1.40535L19.4883 1.27549Z" fill="#24E1BB"/>
    <path d="M22.8846 3.04003L28.7673 2.02127L27.1515 1.89141L23.3176 2.55537L22.8846 3.04003Z" fill="#24E1BB"/>
    <path d="M28.7673 2.02127L25.3709 0.256729L24.938 0.741386L27.1515 1.89141L28.7673 2.02127Z" fill="#24E1BB"/>
</svg>
