<svg width="370" height="600" viewBox="0 0 370 600" fill="none" xmlns="http://www.w3.org/2000/svg">
    <path d="M93.0578 217.032C97.4401 221.338 92.2576 226.148 105.041 237.012V207.447C116.493 199.19 126.915 162.509 147.867 171.33C152.128 187.046 164.324 233.181 171.355 237.012C180.144 241.8 195.324 220.229 226.483 288.14C229.146 294.265 234.792 309.872 236.071 323.294C237.669 340.072 256.844 340.072 276.018 356.85C291.358 370.273 295.726 383.749 295.992 388.809C290.4 392.537 276.977 399.994 268.029 399.994C272.024 403.989 281.611 414.215 288.003 423.164C295.992 434.349 296.171 437.125 304.807 444.219C313.443 451.312 325.779 462.415 325.779 466.116C325.779 469.817 335.7 532.224 96.8314 474.961L90.8324 478.233C92.4683 463.872 99.2304 431.114 113.192 414.971C110.283 411.517 105.338 397.738 108.829 370.252C108.269 365.707 105.739 352.255 100.103 334.803C93.0578 312.989 93.0578 298.264 93.0578 285.175C93.0578 272.086 89.8199 251.402 78.9127 235.042C68.0054 218.681 93.0578 217.032 93.0578 217.032Z" fill="#F9FFFE"/>
</svg>
