<svg width="370" height="601" viewBox="0 0 370 601" fill="none" xmlns="http://www.w3.org/2000/svg">
    <path d="M204.441 229.064C204.441 229.064 88.5628 240.663 129.737 354.776C174.665 462.118 290.655 379.987 290.655 379.987C290.655 379.987 200.475 396.256 177.477 332.517C154.479 268.779 204.441 229.064 204.441 229.064Z" fill="#F9FFFE"/>
    <path d="M97.3071 234.348L44.1177 208.119L62.3333 194.272L97.3071 234.348Z" fill="#F9FFFE"/>
    <path d="M293.306 245.281L334.109 219.047L323.18 202.289L293.306 245.281Z" fill="#F9FFFE"/>
    <path d="M301.321 429.621L358.882 452.208L334.109 468.238L301.321 429.621Z" fill="#F9FFFE"/>
    <path fill-rule="evenodd" clip-rule="evenodd" d="M243.031 409.949C172.08 434.082 143.103 395.814 129.366 369.147C95.1212 380.075 141.753 468.968 196.4 443.466C227.542 428.933 249.663 424.121 243.031 409.949Z" fill="#F9FFFE"/>
    <path d="M44.1177 434.716L97.3071 418.686L62.3333 455.846L44.1177 434.716Z" fill="#F9FFFE"/>
    <path d="M204.441 229.064C204.441 229.064 88.5628 240.663 129.737 354.776C174.665 462.118 290.655 379.987 290.655 379.987C290.655 379.987 200.475 396.256 177.477 332.517C154.479 268.779 204.441 229.064 204.441 229.064Z" stroke="black" stroke-width="0.2"/>
    <path d="M97.3071 234.348L44.1177 208.119L62.3333 194.272L97.3071 234.348Z" stroke="black" stroke-width="0.2"/>
    <path d="M293.306 245.281L334.109 219.047L323.18 202.289L293.306 245.281Z" stroke="black" stroke-width="0.2"/>
    <path d="M301.321 429.621L358.882 452.208L334.109 468.238L301.321 429.621Z" stroke="black" stroke-width="0.2"/>
    <path fill-rule="evenodd" clip-rule="evenodd" d="M243.031 409.949C172.08 434.082 143.103 395.814 129.366 369.147C95.1212 380.075 141.753 468.968 196.4 443.466C227.542 428.933 249.663 424.121 243.031 409.949Z" stroke="black" stroke-width="0.2"/>
    <path d="M44.1177 434.716L97.3071 418.686L62.3333 455.846L44.1177 434.716Z" stroke="black" stroke-width="0.2"/>
</svg>
