<svg width="56" height="57" viewBox="0 0 56 57" fill="none" xmlns="http://www.w3.org/2000/svg">
    <path fill-rule="evenodd" clip-rule="evenodd" d="M12.3545 29.1225H16.4814V41.1053C16.4814 41.6576 16.9291 42.1053 17.4814 42.1053H30.0483C30.6005 42.1053 31.0483 41.6576 31.0483 41.1053V36.185C31.0483 35.6327 31.496 35.185 32.0483 35.185H33.3206C33.8729 35.185 34.3206 35.6327 34.3206 36.185V41.1053C34.3206 41.6576 34.7684 42.1053 35.3206 42.1053H38.4962C39.0484 42.1053 39.4962 41.6576 39.4962 41.1053V29.1225H43.6455L33.2004 19.8088H22.8911L12.3545 29.1225ZM26.4318 39.8056C26.9841 39.8056 27.4318 39.3578 27.4318 38.8056V36.185C27.4318 35.6327 26.9841 35.185 26.4318 35.185H23.5179C22.9656 35.185 22.5179 35.6327 22.5179 36.185V38.8056C22.5179 39.3578 22.9656 39.8056 23.5178 39.8056H26.4318Z" fill="#F4F4F4"/>
    <path d="M22.8911 19.8088H33.2004L28.0457 15.3846L22.8911 19.8088Z" fill="#F4F4F4"/>
</svg>