<svg width="370" height="601" viewBox="0 0 370 601" fill="none" xmlns="http://www.w3.org/2000/svg">
    <path d="M179.47 202.95C179.47 333.405 147.557 331.395 134.113 364.716C120.668 398.038 150.167 417.639 179.47 417.639C208.774 417.639 220.645 390.754 232.749 364.716C244.853 338.679 225.906 233.007 179.47 202.95Z" fill="#F9FFFE"/>
    <path d="M83.67 357.656C66.7983 380.309 64.0017 408.996 64.0017 426.131C64.0017 440.653 75.9895 452.56 90.6412 452.56C105.293 452.56 117.281 440.798 117.281 426.131C117.281 408.996 90.6412 411.243 83.67 357.656Z" fill="#F9FFFE"/>
    <path d="M301.191 335.866C295.724 355.759 269.662 364.838 259.523 383.756C249.384 402.674 263.818 424.765 278.47 424.765C293.122 424.765 305.109 413.003 305.109 398.337C284.472 372.715 317.767 358.228 301.191 335.866Z" fill="#F9FFFE"/>
</svg>
