<svg width="45" height="46" viewBox="0 0 45 46" fill="none" xmlns="http://www.w3.org/2000/svg">
    <path d="M16.5325 20.8619H28.4675M16.5325 20.8619V18.39C16.5325 16.8003 17.726 12.8851 22.5 12.8851C27.274 12.8851 28.4675 16.8003 28.4675 18.39V20.8619M16.5325 20.8619C15.2142 20.8619 12.952 20.8619 12.952 23.2465V27.6499C12.952 30.2839 15.0894 32.4191 17.726 32.4191H27.274C29.9106 32.4191 32.048 30.2839 32.048 27.6499V23.2465C32.048 20.8619 29.661 20.8619 29.661 20.8619C29.661 20.8619 29.661 20.8619 29.661 20.8619H28.4675M22.5 28.309V29.9847M22.5 28.309C21.8408 28.309 21.3065 27.7752 21.3065 27.1167C21.3065 26.4583 21.8408 25.9245 22.5 25.9245C23.1591 25.9245 23.6935 26.4583 23.6935 27.1167C23.6935 27.7752 23.1591 28.309 22.5 28.309Z" stroke="#F4F4F4" stroke-linecap="round"/>
</svg>