<svg width="45" height="45" viewBox="0 0 45 45" fill="none" xmlns="http://www.w3.org/2000/svg">
    <path d="M21.0279 29.8326C21.0279 30.1087 21.2518 30.3326 21.5279 30.3326C21.8041 30.3326 22.0279 30.1087 22.0279 29.8326H21.0279ZM28.6889 20.7098L28.6889 20.2098H28.6889V20.7098ZM24.2676 27.2842C23.9914 27.2842 23.7676 27.508 23.7676 27.7842C23.7676 28.0603 23.9914 28.2842 24.2676 28.2842V27.2842ZM25.0061 29.6833C25.0061 29.9594 25.23 30.1833 25.5061 30.1833C25.7823 30.1833 26.0061 29.9594 26.0061 29.6833H25.0061ZM16.7539 32.767H26.3019V31.767H16.7539V32.767ZM11.4799 23.0944V27.4978H12.4799V23.0944H11.4799ZM28.6889 20.2098H27.4954V21.2098H28.6889V20.2098ZM27.4954 20.2098H15.5604V21.2098H27.4954V20.2098ZM16.0604 20.7098V18.2379H15.0604V20.7098H16.0604ZM16.0604 18.2379C16.0604 17.5385 16.3309 16.272 17.152 15.1919C17.9541 14.1367 19.2998 13.233 21.5279 13.233V12.233C18.9821 12.233 17.344 13.287 16.3559 14.5868C15.3867 15.8617 15.0604 17.3476 15.0604 18.2379H16.0604ZM21.5279 13.233C23.7561 13.233 25.1017 14.1367 25.9039 15.1919C26.7249 16.272 26.9954 17.5385 26.9954 18.2379H27.9954C27.9954 17.3476 27.6691 15.8617 26.6999 14.5868C25.7119 13.287 24.0738 12.233 21.5279 12.233V13.233ZM26.9954 18.2379V20.7098H27.9954V18.2379H26.9954ZM12.4799 23.0944C12.4799 22.5796 12.6009 22.2371 12.7648 22.0009C12.9297 21.7633 13.1662 21.5927 13.4648 21.4708C14.0883 21.2164 14.8807 21.2098 15.5604 21.2098V20.2098C14.9219 20.2098 13.9241 20.2033 13.0869 20.545C12.6551 20.7212 12.2437 20.9977 11.9432 21.4308C11.6418 21.8652 11.4799 22.4169 11.4799 23.0944H12.4799ZM31.5759 23.0944C31.5759 22.4107 31.4033 21.8646 31.1188 21.4383C30.8364 21.0151 30.4635 20.7393 30.1058 20.5606C29.7501 20.3829 29.4005 20.2966 29.144 20.2539C29.0145 20.2323 28.9056 20.2214 28.827 20.2158C28.7877 20.213 28.7557 20.2115 28.7323 20.2107C28.7206 20.2103 28.7111 20.2101 28.7038 20.21C28.7002 20.2099 28.6971 20.2099 28.6946 20.2099C28.6933 20.2099 28.6922 20.2099 28.6913 20.2099C28.6908 20.2098 28.6904 20.2098 28.69 20.2098C28.6898 20.2098 28.6895 20.2098 28.6894 20.2098C28.6891 20.2098 28.6889 20.2098 28.6889 20.7098C28.6889 21.2098 28.6887 21.2098 28.6884 21.2098C28.6884 21.2098 28.6881 21.2098 28.688 21.2098C28.6878 21.2098 28.6875 21.2098 28.6874 21.2098C28.687 21.2098 28.6868 21.2098 28.6867 21.2098C28.6865 21.2098 28.6868 21.2098 28.6877 21.2099C28.6894 21.2099 28.6933 21.21 28.6991 21.2102C28.7107 21.2105 28.73 21.2114 28.7559 21.2132C28.8079 21.2169 28.8854 21.2246 28.9797 21.2403C29.1708 21.2721 29.4179 21.3348 29.659 21.4552C29.8981 21.5746 30.1219 21.7459 30.287 21.9934C30.4501 22.2377 30.5759 22.5859 30.5759 23.0944H31.5759ZM16.7539 31.767C14.393 31.767 12.4799 29.8551 12.4799 27.4978H11.4799C11.4799 30.4084 13.8417 32.767 16.7539 32.767V31.767ZM21.0279 28.1569V29.8326H22.0279V28.1569H21.0279ZM19.8344 26.9646C19.8344 27.8998 20.5931 28.6569 21.5279 28.6569V27.6569C21.1444 27.6569 20.8344 27.3465 20.8344 26.9646H19.8344ZM21.5279 25.2724C20.5931 25.2724 19.8344 26.0295 19.8344 26.9646H20.8344C20.8344 26.5828 21.1444 26.2724 21.5279 26.2724V25.2724ZM23.2214 26.9646C23.2214 26.0295 22.4627 25.2724 21.5279 25.2724V26.2724C21.9114 26.2724 22.2214 26.5828 22.2214 26.9646H23.2214ZM22.2214 26.9646C22.2214 27.3465 21.9114 27.6569 21.5279 27.6569V28.6569C22.4627 28.6569 23.2214 27.8998 23.2214 26.9646H22.2214ZM31.1209 26.385C31.8936 26.385 32.5201 27.0114 32.5201 27.7842H33.5201C33.5201 26.4592 32.4459 25.385 31.1209 25.385V26.385ZM32.5201 27.7842C32.5201 28.5569 31.8936 29.1833 31.1209 29.1833V30.1833C32.4459 30.1833 33.5201 29.1091 33.5201 27.7842H32.5201ZM24.2676 28.2842H25.5061V27.2842H24.2676V28.2842ZM25.5061 28.2842H29.2218V27.2842H25.5061V28.2842ZM25.0061 27.7842V29.6833H26.0061V27.7842H25.0061ZM31.0642 25.3857C29.7653 25.4159 28.7218 26.4781 28.7218 27.7842H29.7218C29.7218 27.0226 30.3304 26.403 31.0875 26.3854L31.0642 25.3857ZM28.7218 27.7842C28.7218 28.8748 29.4492 29.7942 30.4442 30.0864L30.7259 29.1269C30.1451 28.9563 29.7218 28.419 29.7218 27.7842H28.7218ZM31.0875 26.3854C31.0986 26.3852 31.1097 26.385 31.1209 26.385V25.385C31.102 25.385 31.0831 25.3852 31.0642 25.3857L31.0875 26.3854ZM31.1209 29.1833C30.983 29.1833 30.8506 29.1635 30.7259 29.1269L30.4442 30.0864C30.6594 30.1495 30.8867 30.1833 31.1209 30.1833V29.1833ZM26.3019 32.767C28.3779 32.767 30.173 31.5685 31.0333 29.8282L30.1368 29.385C29.4388 30.7971 27.9834 31.767 26.3019 31.767V32.767ZM31.5759 25.8856V23.0944H30.5759V25.8856H31.5759Z" fill="#F4F4F4"/>
</svg>
