<svg width="56" height="57" viewBox="0 0 56 57" fill="none" xmlns="http://www.w3.org/2000/svg">
    <path d="M15.1405 26.5071C15.1405 25.9548 15.5882 25.5071 16.1405 25.5071H21.3591C21.9114 25.5071 22.3591 25.9548 22.3591 26.5071V41.8844C22.3591 42.4366 21.9114 42.8844 21.3591 42.8844H16.1405C15.5882 42.8844 15.1405 42.4366 15.1405 41.8844V26.5071Z" fill="#F4F4F4"/>
    <path d="M24.3907 19.6055C24.3907 19.0532 24.8384 18.6055 25.3907 18.6055H30.6093C31.1615 18.6055 31.6093 19.0532 31.6093 19.6055V41.8844C31.6093 42.4367 31.1615 42.8844 30.6093 42.8844H25.3907C24.8384 42.8844 24.3907 42.4367 24.3907 41.8844V19.6055Z" fill="#F4F4F4"/>
    <path d="M33.6409 31.5302C33.6409 30.9779 34.0886 30.5302 34.6409 30.5302H39.8595C40.4118 30.5302 40.8595 30.9779 40.8595 31.5302V41.8844C40.8595 42.4367 40.4118 42.8844 39.8595 42.8844H34.6409C34.0886 42.8844 33.6409 42.4367 33.6409 41.8844V31.5302Z" fill="#F4F4F4"/>
</svg>
