<svg width="748" height="932" viewBox="0 0 748 932" fill="none" xmlns="http://www.w3.org/2000/svg">
  <g clip-path="url(#clip0_8_58)">
    <rect width="748" height="932" fill="#171717"/>
    <rect width="748" height="932" fill="url(#paint0_linear_8_58)"/>
    <g style="mix-blend-mode:overlay" opacity="0.15">
      <path d="M273.761 186.923L265.575 204.561L296.126 199.835L304.312 182.196L273.761 186.923Z" fill="white"/>
      <path d="M324.102 215.987L352.768 154.22L329.148 167.858L310.465 208.113L324.102 215.987Z" fill="white"/>
      <path d="M352.768 154.22L245.785 170.771L259.422 178.644L329.148 167.858L352.768 154.22Z" fill="white"/>
      <path d="M245.785 170.771L217.119 232.537L240.74 218.9L259.422 178.644L245.785 170.771Z" fill="white"/>
      <path d="M217.119 232.537L324.102 215.987L310.465 208.113L240.74 218.9L217.119 232.537Z" fill="white"/>
      <path d="M406.536 151.266L406.536 158.341L420.685 154.256L420.685 147.181L406.536 151.266Z" fill="white"/>
      <path d="M438.385 157.996L438.385 133.222L429.757 140.027L429.757 156.173L438.385 157.996Z" fill="white"/>
      <path d="M438.385 133.222L388.836 147.525L397.464 149.349L429.757 140.027L438.385 133.222Z" fill="white"/>
      <path d="M388.836 147.525L388.836 172.3L397.464 165.495L397.464 149.349L388.836 147.525Z" fill="white"/>
      <path d="M388.836 172.3L438.385 157.996L429.757 156.173L397.464 165.495L388.836 172.3Z" fill="white"/>
      <path d="M390.901 192.028L383.827 200.197L396.08 200.197L403.155 192.028L390.901 192.028Z" fill="white"/>
      <path d="M402.559 210.416L427.334 181.809L415.547 186.79L399.401 205.435L402.559 210.416Z" fill="white"/>
      <path d="M427.334 181.809L384.423 181.809L387.581 186.79L415.547 186.79L427.334 181.809Z" fill="white"/>
      <path d="M384.423 181.809L359.648 210.416L371.434 205.435L387.581 186.79L384.423 181.809Z" fill="white"/>
      <path d="M359.648 210.416L402.559 210.416L399.401 205.435L371.434 205.435L359.648 210.416Z" fill="white"/>
      <path d="M384.446 125.497L384.446 132.572L398.596 128.487L398.596 121.413L384.446 125.497Z" fill="white"/>
      <path d="M416.296 132.228L416.296 107.453L407.668 114.258L407.668 130.404L416.296 132.228Z" fill="white"/>
      <path d="M416.296 107.453L366.746 121.757L375.374 123.58L407.668 114.258L416.296 107.453Z" fill="white"/>
      <path d="M366.746 121.757L366.746 146.531L375.374 139.727L375.374 123.58L366.746 121.757Z" fill="white"/>
      <path d="M366.746 146.531L416.296 132.228L407.668 130.404L375.374 139.727L366.746 146.531Z" fill="white"/>
      <path d="M339.033 230.425L331.958 238.594L344.212 238.594L351.286 230.425L339.033 230.425Z" fill="white"/>
      <path d="M350.69 248.813L375.465 220.206L363.679 225.187L347.532 243.832L350.69 248.813Z" fill="white"/>
      <path d="M375.465 220.206L332.554 220.206L335.712 225.187L363.679 225.187L375.465 220.206Z" fill="white"/>
      <path d="M332.554 220.206L307.779 248.813L319.565 243.832L335.712 225.187L332.554 220.206Z" fill="white"/>
      <path d="M307.779 248.813L350.69 248.813L347.532 243.832L319.565 243.832L307.779 248.813Z" fill="white"/>
    </g>
    <g style="mix-blend-mode:overlay" opacity="0.3">
      <path d="M486.923 670.74L537.536 641.518L486.923 612.296L436.309 641.518L486.923 670.74Z" fill="white"/>
      <path d="M486.923 539.188L309.682 641.518H371.408L486.923 574.825V539.188Z" fill="white"/>
      <path d="M309.682 641.518L486.923 743.848V708.21L371.408 641.518H309.682Z" fill="white"/>
      <path d="M486.923 743.848L664.164 641.518H602.438L486.923 708.21V743.848Z" fill="white"/>
      <path d="M664.164 641.518L486.923 539.188V574.825L602.438 641.518H664.164Z" fill="white"/>
      <path d="M232.743 577.95L248.754 561.939L221.022 552.696L205.011 568.707L232.743 577.95Z" fill="white"/>
      <path d="M206.36 521.104L150.292 577.172L176.965 573.045L213.507 536.503L206.36 521.104Z" fill="white"/>
      <path d="M150.292 577.172L247.405 609.542L240.258 594.143L176.965 573.045L150.292 577.172Z" fill="white"/>
      <path d="M247.405 609.542L303.473 553.474L276.799 557.601L240.258 594.143L247.405 609.542Z" fill="white"/>
      <path d="M303.473 553.474L206.36 521.104L213.507 536.503L276.799 557.601L303.473 553.474Z" fill="white"/>
      <path d="M345.42 506.129L373.152 496.885L357.141 480.874L329.409 490.118L345.42 506.129Z" fill="white"/>
      <path d="M371.803 449.282L274.69 481.653L301.363 485.78L364.655 464.682L371.803 449.282Z" fill="white"/>
      <path d="M274.69 481.653L330.758 537.721L337.905 522.321L301.363 485.78L274.69 481.653Z" fill="white"/>
      <path d="M330.758 537.721L427.87 505.35L401.197 501.224L337.905 522.321L330.758 537.721Z" fill="white"/>
      <path d="M427.87 505.35L371.803 449.282L364.655 464.682L401.197 501.224L427.87 505.35Z" fill="white"/>
      <path d="M203.287 665.13L219.298 649.12L191.566 639.876L175.555 655.887L203.287 665.13Z" fill="white"/>
      <path d="M176.904 608.284L120.836 664.352L147.51 660.225L184.051 623.684L176.904 608.284Z" fill="white"/>
      <path d="M120.836 664.352L217.949 696.722L210.802 681.323L147.51 660.225L120.836 664.352Z" fill="white"/>
      <path d="M217.949 696.722L274.017 640.654L247.344 644.781L210.802 681.323L217.949 696.722Z" fill="white"/>
      <path d="M274.017 640.654L176.904 608.284L184.051 623.684L247.344 644.781L274.017 640.654Z" fill="white"/>
      <path d="M500.089 487.005L527.821 477.761L511.81 461.75L484.078 470.994L500.089 487.005Z" fill="white"/>
      <path d="M526.472 430.158L429.36 462.529L456.033 466.655L519.325 445.558L526.472 430.158Z" fill="white"/>
      <path d="M429.36 462.529L485.427 518.596L492.575 503.197L456.033 466.655L429.36 462.529Z" fill="white"/>
      <path d="M485.427 518.596L582.54 486.226L555.867 482.099L492.575 503.197L485.427 518.596Z" fill="white"/>
      <path d="M582.54 486.226L526.472 430.158L519.325 445.558L555.867 482.099L582.54 486.226Z" fill="white"/>
    </g>
  </g>
  <defs>
    <linearGradient id="paint0_linear_8_58" x1="374" y1="0" x2="374" y2="932" gradientUnits="userSpaceOnUse">
      <stop stop-color="#0C0C0C"/>
      <stop offset="1" stop-color="#1B1B1B"/>
    </linearGradient>
    <clipPath id="clip0_8_58">
      <rect width="748" height="932" fill="white"/>
    </clipPath>
  </defs>
</svg>
